<?xml version="1.0" encoding="UTF-8"?>
<svg width="98px" height="98px" viewBox="0 0 98 98" version="1.1" xmlns="http://www.w3.org/2000/svg" xmlns:xlink="http://www.w3.org/1999/xlink">
    <g id="Page-1" stroke="none" stroke-width="1" fill="none" fill-rule="evenodd">
        <g id="logo" transform="translate(1.000000, 1.000000)" fill-rule="nonzero">
            <circle id="Oval" stroke="#515151" stroke-width="2" fill="#B5B5B5" cx="48" cy="48" r="48"></circle>
            <path d="M62.1959388,16.5929954 C62.5347768,16.6902293 62.7850185,16.9039466 63.8590339,18.0125121 C64.6911984,18.8715764 64.7200725,18.9004504 64.9236714,19.0704864 C65.0268282,19.1566149 65.2047614,19.3343013 65.3192704,19.465345 C65.4337794,19.5963887 65.6114658,19.7758026 65.714129,19.8641522 C65.8167922,19.9525018 66.1753732,20.3078746 66.5105095,20.6538694 C66.8458925,20.9998643 67.1672087,21.3273502 67.2249568,21.3816432 C67.2824581,21.4359363 69.8174503,23.9901779 72.8581084,27.0577358 C75.8987665,30.1252936 78.431291,32.6795353 78.4858308,32.7338283 C79.6743552,33.9176638 79.9055943,34.4154324 79.6101907,35.1535712 C79.4744581,35.4929029 78.8722987,36.0407692 78.6351367,36.0407692 C78.5867665,36.0407692 78.3890904,36.1481214 78.1963501,36.2794119 C77.0297897,37.0725841 73.4123912,37.4309183 71.577039,36.9351239 C70.148638,36.5493964 70.462057,36.3633193 67.3540262,39.4429697 C64.4323192,42.3380237 64.4424375,42.3281522 64.0897794,42.6741471 C63.9621907,42.7990211 63.7845043,42.9860854 63.6949208,43.089489 C63.6050904,43.1931394 63.2763707,43.5263013 62.9641856,43.8298489 C59.4289671,47.2693142 59.0035069,47.7685635 59.2875583,48.1444196 C59.3652961,48.246836 59.5252138,48.6165224 59.6434246,48.9659723 C59.7616354,49.3154221 59.9363604,49.7374273 60.0318668,49.9037615 C60.1273732,50.0700957 60.2781599,50.5394838 60.367003,50.9466818 C60.4558462,51.3538797 60.6372344,52.0202036 60.7702524,52.4274016 C61.3289773,54.139854 61.3267563,59.2434016 60.7670442,60.3260545 C60.6846174,60.4854787 60.5084118,61.0224864 60.3753938,61.5195147 C60.2423758,62.016543 60.0691316,62.495309 59.9904066,62.5831651 C59.9116817,62.6710211 59.7300467,63.0091188 59.5869105,63.3343836 C59.4435275,63.6596484 59.2448642,64.0150211 59.1454092,64.1241008 C59.0459542,64.2331805 58.8860365,64.4779928 58.7900365,64.6680185 C58.6940365,64.8580443 58.5094401,65.1245738 58.3798771,65.2603065 C58.2505609,65.3960391 57.9082678,65.7607898 57.6195275,66.0710006 C56.8285763,66.9209337 55.6790442,67.0255712 55.2822113,66.2839774 C55.2084221,66.1460237 55.0223449,65.9680905 54.8688437,65.888872 C54.7150956,65.8094067 54.5433321,65.6428257 54.486818,65.5186921 C54.430057,65.3945584 54.2516303,65.2146509 54.0897383,65.1191445 C53.928093,65.0236381 53.7469516,64.8385481 53.6874761,64.707998 C53.6280005,64.5774479 53.545327,64.4705892 53.5041136,64.4705892 C53.4626534,64.4705892 51.8264581,62.8714119 49.8679593,60.9168617 C47.9094606,58.9623116 46.2668488,57.3631342 46.2177383,57.3631342 C46.1683809,57.3631342 46.0407922,57.218764 45.9341804,57.0423116 C45.8194246,56.8525327 45.5168642,56.6040185 45.1928334,56.433489 L44.6452138,56.145489 L44.365111,56.3996792 C44.2111162,56.5393604 43.8406894,56.8559877 43.5420776,57.1035147 C43.2434658,57.3507949 42.8436714,57.6874119 42.6536457,57.851525 C41.9503038,58.4588669 41.507075,58.8443476 41.0742113,59.2251394 C40.5315275,59.7026715 39.8049876,60.3253142 39.0999182,60.9168617 C37.7877537,62.0177769 37.5461496,62.2226098 37.1749825,62.5478746 C36.9578102,62.7383939 36.6246483,63.0268874 36.4346226,63.1890263 C36.2445969,63.3514119 35.8670133,63.6848206 35.595548,63.9303733 C34.9437845,64.519453 34.7377177,64.6961522 32.7947665,66.3288926 C32.5576046,66.528543 32.1753321,66.8752782 31.9458205,67.099854 C31.7160622,67.3244299 31.4349722,67.5376535 31.3212036,67.5739311 C31.2071881,67.609962 31.0865095,67.7269389 31.0524529,67.8335507 C31.0186431,67.9404093 30.8197331,68.1148874 30.6104581,68.2217461 C30.401183,68.3286047 30.202273,68.5030828 30.1684632,68.6099414 C30.1344066,68.7165533 30.0184169,68.8320494 29.9103244,68.8663527 C29.8022318,68.9006561 29.5450802,69.0916689 29.3385198,69.2908257 C29.1319593,69.4899826 28.7469722,69.8307949 28.4831573,70.0479671 C28.2190956,70.2651394 27.7568642,70.6550622 27.4557845,70.9141882 C27.1549516,71.173561 26.7164118,71.5511445 26.4817177,71.7532628 C26.2467768,71.9556278 25.9131213,72.2572011 25.7401239,72.423782 C25.0343141,73.1036792 24.0032395,73.026435 23.6347871,72.2658386 C23.2396817,71.4507024 23.3734401,71.1429594 24.8785917,69.4063219 C25.6530082,68.5129543 25.9489054,68.1800391 26.291692,67.8167692 C26.495291,67.6010777 26.6618719,67.3927898 26.6618719,67.3540443 C26.6618719,67.3152988 26.8686791,67.0616021 27.1216354,66.7901368 C27.6732036,66.1980957 28.9226843,64.7336638 29.1297383,64.4362859 C29.2111779,64.3195558 29.4229208,64.068327 29.6003604,63.8783013 C29.7778,63.6882756 30.0554349,63.3773245 30.2175737,63.1872988 C30.3794658,62.997273 30.6785712,62.6572011 30.8821701,62.4316381 C31.0855223,62.2060751 31.4164632,61.8284916 31.6175943,61.5925635 C32.9682575,60.0067126 33.488237,59.3904864 33.9667563,58.8083167 C34.2653681,58.4450468 34.6770082,57.9601111 34.8815943,57.7308463 C35.0861804,57.5013347 35.385039,57.1583013 35.5456971,56.9682756 C35.7063552,56.7782499 36.0274246,56.4122653 36.2596509,56.1551137 C36.7709928,55.587998 37.0698514,55.237561 38.1325146,53.9592062 C38.583147,53.417016 39.1885146,52.7292216 39.4777485,52.430363 C40.0517743,51.8375815 40.1334606,50.6505378 39.6001547,50.6505378 C39.553512,50.6505378 39.19962,50.3284813 38.8141393,49.9348566 C38.4286586,49.5412319 38.0797023,49.1868463 38.0389825,49.1473604 C35.6604529,46.8463219 29.699075,40.8210263 29.5339748,40.5510417 C29.1502216,39.9239568 29.4658617,39.0103527 30.2822318,38.3840083 C30.4357331,38.2665378 30.5944169,38.1172319 30.6351367,38.0520802 C30.7160827,37.9230108 31.7893578,37.1972113 32.3769568,36.8744144 C32.5800622,36.7628669 32.9127306,36.568399 33.1163295,36.4427846 C33.3199285,36.3169234 33.8278154,36.0908669 34.2448848,35.940327 C34.6619542,35.790034 35.1853886,35.598034 35.4079902,35.5138797 C37.294674,34.8006664 42.9685455,34.8766766 44.8051316,35.6397409 C45.0605557,35.7458592 45.5997845,35.9282345 46.0032807,36.0449646 C46.4067768,36.1616946 46.8374195,36.3230931 46.9598257,36.4032988 C47.5523604,36.7914941 48.5019953,37.0249543 48.7919696,36.8534376 C48.943003,36.7643476 51.366201,34.3641008 54.1768539,31.5198849 C59.6831573,25.9476895 59.7144992,25.9101779 59.3981187,25.2759363 C58.4822935,23.4403373 59.2611521,18.2592988 60.6710442,16.8069594 C60.899075,16.5720185 61.7206277,16.4567692 62.1959388,16.5929954" id="Path" stroke="#000000" fill="#000000"></path>
        </g>
    </g>
</svg>